<svg width="75" height="19" viewBox="0 0 75 19" fill="none" xmlns="http://www.w3.org/2000/svg">
<path d="M9.408 18.168C7.856 18.168 6.424 17.808 5.112 17.088C3.816 16.352 2.784 15.336 2.016 14.04C1.264 12.728 0.888 11.256 0.888 9.624C0.888 7.992 1.264 6.528 2.016 5.232C2.784 3.936 3.816 2.928 5.112 2.208C6.424 1.472 7.856 1.104 9.408 1.104C10.976 1.104 12.408 1.472 13.704 2.208C15.016 2.928 16.048 3.936 16.8 5.232C17.552 6.528 17.928 7.992 17.928 9.624C17.928 11.256 17.552 12.728 16.8 14.04C16.048 15.336 15.016 16.352 13.704 17.088C12.408 17.808 10.976 18.168 9.408 18.168ZM9.408 15.792C10.512 15.792 11.496 15.544 12.36 15.048C13.224 14.536 13.896 13.816 14.376 12.888C14.872 11.944 15.12 10.856 15.12 9.624C15.12 8.392 14.872 7.312 14.376 6.384C13.896 5.456 13.224 4.744 12.36 4.248C11.496 3.752 10.512 3.504 9.408 3.504C8.304 3.504 7.32 3.752 6.456 4.248C5.592 4.744 4.912 5.456 4.416 6.384C3.936 7.312 3.696 8.392 3.696 9.624C3.696 10.856 3.936 11.944 4.416 12.888C4.912 13.816 5.592 14.536 6.456 15.048C7.32 15.544 8.304 15.792 9.408 15.792ZM36.8683 4.56C37.9083 4.56 38.8363 4.776 39.6523 5.208C40.4843 5.64 41.1323 6.28 41.5963 7.128C42.0763 7.976 42.3163 9 42.3163 10.2V18H39.6043V10.608C39.6043 9.424 39.3083 8.52 38.7163 7.896C38.1243 7.256 37.3163 6.936 36.2923 6.936C35.2683 6.936 34.4523 7.256 33.8443 7.896C33.2523 8.52 32.9563 9.424 32.9563 10.608V18H30.2443V10.608C30.2443 9.424 29.9483 8.52 29.3563 7.896C28.7643 7.256 27.9563 6.936 26.9323 6.936C25.9083 6.936 25.0923 7.256 24.4843 7.896C23.8923 8.52 23.5963 9.424 23.5963 10.608V18H20.8603V4.776H23.5963V6.288C24.0443 5.744 24.6123 5.32 25.3003 5.016C25.9883 4.712 26.7243 4.56 27.5083 4.56C28.5643 4.56 29.5083 4.784 30.3403 5.232C31.1723 5.68 31.8123 6.328 32.2603 7.176C32.6603 6.376 33.2843 5.744 34.1323 5.28C34.9803 4.8 35.8923 4.56 36.8683 4.56ZM45.1258 11.328C45.1258 10 45.3978 8.824 45.9418 7.8C46.5018 6.776 47.2538 5.984 48.1978 5.424C49.1578 4.848 50.2138 4.56 51.3658 4.56C52.4058 4.56 53.3098 4.768 54.0778 5.184C54.8618 5.584 55.4858 6.088 55.9498 6.696V4.776H58.7098V18H55.9498V16.032C55.4858 16.656 54.8538 17.176 54.0538 17.592C53.2538 18.008 52.3418 18.216 51.3178 18.216C50.1818 18.216 49.1418 17.928 48.1978 17.352C47.2538 16.76 46.5018 15.944 45.9418 14.904C45.3978 13.848 45.1258 12.656 45.1258 11.328ZM55.9498 11.376C55.9498 10.464 55.7578 9.672 55.3738 9C55.0058 8.328 54.5178 7.816 53.9098 7.464C53.3018 7.112 52.6458 6.936 51.9418 6.936C51.2378 6.936 50.5818 7.112 49.9738 7.464C49.3658 7.8 48.8698 8.304 48.4858 8.976C48.1178 9.632 47.9338 10.416 47.9338 11.328C47.9338 12.24 48.1178 13.04 48.4858 13.728C48.8698 14.416 49.3658 14.944 49.9738 15.312C50.5978 15.664 51.2538 15.84 51.9418 15.84C52.6458 15.84 53.3018 15.664 53.9098 15.312C54.5178 14.96 55.0058 14.448 55.3738 13.776C55.7578 13.088 55.9498 12.288 55.9498 11.376ZM69.3834 4.56C70.3914 4.56 71.2874 4.776 72.0714 5.208C72.8714 5.64 73.4954 6.28 73.9434 7.128C74.4074 7.976 74.6394 9 74.6394 10.2V18H71.9274V10.608C71.9274 9.424 71.6314 8.52 71.0394 7.896C70.4474 7.256 69.6394 6.936 68.6154 6.936C67.5914 6.936 66.7754 7.256 66.1674 7.896C65.5754 8.52 65.2794 9.424 65.2794 10.608V18H62.5434V0.24H65.2794V6.312C65.7434 5.752 66.3274 5.32 67.0314 5.016C67.7514 4.712 68.5354 4.56 69.3834 4.56Z" fill="#1B2021"/>
</svg>
